<svg width="133" height="119" viewBox="0 0 133 119" fill="none" xmlns="http://www.w3.org/2000/svg">
<rect x="-0.000732422" y="119" width="82.3846" height="132.731" rx="9.15385" transform="rotate(-90 -0.000732422 119)" fill="#4E4B44"/>
<rect x="11.4419" y="64.077" width="64.0769" height="109.846" rx="9.15385" transform="rotate(-90 11.4419 64.077)" fill="#4E4B44"/>
<rect x="16.019" y="43.4807" width="38.9038" height="100.692" rx="4.57692" transform="rotate(-90 16.019 43.4807)" fill="white"/>
<path fill-rule="evenodd" clip-rule="evenodd" d="M55.9995 24C55.9995 18.4771 60.4767 14 65.9995 14C71.5223 14 75.9995 18.4771 75.9995 24C75.9995 29.5228 71.5223 34 65.9995 34C60.4767 34 55.9995 29.5228 55.9995 24ZM69.7066 21.2929C70.0971 21.6834 70.0971 22.3166 69.7066 22.7071L66.0238 26.3899C65.4581 26.9556 64.5409 26.9556 63.9752 26.3899L62.2924 24.7071C61.9019 24.3166 61.9019 23.6834 62.2924 23.2929C62.6829 22.9024 63.3161 22.9024 63.7066 23.2929L64.9995 24.5858L68.2924 21.2929C68.6829 20.9024 69.3161 20.9024 69.7066 21.2929Z" fill="#00D73D"/>
<g clip-path="url(#clip0_1_289)">
<rect x="4.57568" y="114.423" width="57.2115" height="123.577" rx="4.57692" transform="rotate(-90 4.57568 114.423)" fill="#D9D9D9" fill-opacity="0.2"/>
<circle cx="17.1627" cy="101.837" r="3.43269" transform="rotate(-90 17.1627 101.837)" fill="white"/>
<circle cx="17.1627" cy="85.8173" r="3.43269" transform="rotate(-90 17.1627 85.8173)" fill="white"/>
<circle cx="17.1627" cy="69.7981" r="3.43269" transform="rotate(-90 17.1627 69.7981)" fill="white"/>
<circle cx="30.8934" cy="101.837" r="3.43269" transform="rotate(-90 30.8934 101.837)" fill="white"/>
<circle cx="30.8936" cy="85.8172" r="3.43269" transform="rotate(-90 30.8936 85.8172)" fill="white"/>
<circle cx="30.8936" cy="69.7981" r="3.43269" transform="rotate(-90 30.8936 69.7981)" fill="white"/>
<circle cx="44.6241" cy="101.837" r="3.43269" transform="rotate(-90 44.6241 101.837)" fill="white"/>
<circle cx="44.6241" cy="85.8172" r="3.43269" transform="rotate(-90 44.6241 85.8172)" fill="white"/>
<circle cx="44.6241" cy="69.798" r="3.43269" transform="rotate(-90 44.6241 69.798)" fill="white"/>
<circle cx="58.3551" cy="101.837" r="3.43269" transform="rotate(-90 58.3551 101.837)" fill="white"/>
<circle cx="58.3551" cy="85.8173" r="3.43269" transform="rotate(-90 58.3551 85.8173)" fill="white"/>
<circle cx="58.3551" cy="69.7981" r="3.43269" transform="rotate(-90 58.3551 69.7981)" fill="white"/>
<circle cx="72.0858" cy="101.837" r="3.43269" transform="rotate(-90 72.0858 101.837)" fill="white"/>
<circle cx="72.0858" cy="85.8173" r="3.43269" transform="rotate(-90 72.0858 85.8173)" fill="white"/>
<circle cx="72.0858" cy="69.7981" r="3.43269" transform="rotate(-90 72.0858 69.7981)" fill="white"/>
<circle cx="85.8165" cy="101.837" r="3.43269" transform="rotate(-90 85.8165 101.837)" fill="white"/>
<circle cx="85.8167" cy="85.8172" r="3.43269" transform="rotate(-90 85.8167 85.8172)" fill="white"/>
<circle cx="85.8167" cy="69.7981" r="3.43269" transform="rotate(-90 85.8167 69.7981)" fill="white"/>
<circle cx="99.5472" cy="101.837" r="3.43269" transform="rotate(-90 99.5472 101.837)" fill="white"/>
<circle cx="99.5472" cy="85.8172" r="3.43269" transform="rotate(-90 99.5472 85.8172)" fill="white"/>
<circle cx="99.5472" cy="69.798" r="3.43269" transform="rotate(-90 99.5472 69.798)" fill="white"/>
<circle cx="113.278" cy="101.837" r="3.43269" transform="rotate(-90 113.278 101.837)" fill="white"/>
<circle cx="113.278" cy="85.8172" r="3.43269" transform="rotate(-90 113.278 85.8172)" fill="white"/>
<circle cx="113.278" cy="69.7981" r="3.43269" transform="rotate(-90 113.278 69.7981)" fill="white"/>
</g>
<defs>
<clipPath id="clip0_1_289">
<rect width="57.2115" height="123.577" fill="white" transform="translate(4.57617 114.423) rotate(-90)"/>
</clipPath>
</defs>
</svg>
